<svg id="visual" viewBox="0 0 960 540" width="960" height="540" xmlns="http://www.w3.org/2000/svg" xmlns:xlink="http://www.w3.org/1999/xlink" version="1.1"><rect x="0" y="0" width="960" height="540" fill="#C7EEF5"></rect><path d="M0 352L17.8 346.3C35.7 340.7 71.3 329.3 106.8 324.8C142.3 320.3 177.7 322.7 213.2 328.7C248.7 334.7 284.3 344.3 320 352.3C355.7 360.3 391.3 366.7 426.8 360.2C462.3 353.7 497.7 334.3 533.2 324.8C568.7 315.3 604.3 315.7 640 320.8C675.7 326 711.3 336 746.8 347.5C782.3 359 817.7 372 853.2 378.2C888.7 384.3 924.3 383.7 942.2 383.3L960 383L960 541L942.2 541C924.3 541 888.7 541 853.2 541C817.7 541 782.3 541 746.8 541C711.3 541 675.7 541 640 541C604.3 541 568.7 541 533.2 541C497.7 541 462.3 541 426.8 541C391.3 541 355.7 541 320 541C284.3 541 248.7 541 213.2 541C177.7 541 142.3 541 106.8 541C71.3 541 35.7 541 17.8 541L0 541Z" fill="#E9D5AA"></path><path d="M0 402L17.8 397C35.7 392 71.3 382 106.8 375.2C142.3 368.3 177.7 364.7 213.2 371.7C248.7 378.7 284.3 396.3 320 407.5C355.7 418.7 391.3 423.3 426.8 415.2C462.3 407 497.7 386 533.2 378.2C568.7 370.3 604.3 375.7 640 377.3C675.7 379 711.3 377 746.8 380.5C782.3 384 817.7 393 853.2 400.7C888.7 408.3 924.3 414.7 942.2 417.8L960 421L960 541L942.2 541C924.3 541 888.7 541 853.2 541C817.7 541 782.3 541 746.8 541C711.3 541 675.7 541 640 541C604.3 541 568.7 541 533.2 541C497.7 541 462.3 541 426.8 541C391.3 541 355.7 541 320 541C284.3 541 248.7 541 213.2 541C177.7 541 142.3 541 106.8 541C71.3 541 35.7 541 17.8 541L0 541Z" fill="#2e94af"></path><path d="M0 408L17.8 414.8C35.7 421.7 71.3 435.3 106.8 436.5C142.3 437.7 177.7 426.3 213.2 417.3C248.7 408.3 284.3 401.7 320 403.2C355.7 404.7 391.3 414.3 426.8 421.8C462.3 429.3 497.7 434.7 533.2 435.3C568.7 436 604.3 432 640 432.8C675.7 433.7 711.3 439.3 746.8 436C782.3 432.7 817.7 420.3 853.2 418.5C888.7 416.7 924.3 425.3 942.2 429.7L960 434L960 541L942.2 541C924.3 541 888.7 541 853.2 541C817.7 541 782.3 541 746.8 541C711.3 541 675.7 541 640 541C604.3 541 568.7 541 533.2 541C497.7 541 462.3 541 426.8 541C391.3 541 355.7 541 320 541C284.3 541 248.7 541 213.2 541C177.7 541 142.3 541 106.8 541C71.3 541 35.7 541 17.8 541L0 541Z" fill="#0d6c90"></path><path d="M0 457L17.8 461.7C35.7 466.3 71.3 475.7 106.8 472.5C142.3 469.3 177.7 453.7 213.2 445.5C248.7 437.3 284.3 436.7 320 442.5C355.7 448.3 391.3 460.7 426.8 467.5C462.3 474.3 497.7 475.7 533.2 477.2C568.7 478.7 604.3 480.3 640 476.8C675.7 473.3 711.3 464.7 746.8 458.2C782.3 451.7 817.7 447.3 853.2 450.5C888.7 453.7 924.3 464.3 942.2 469.7L960 475L960 541L942.2 541C924.3 541 888.7 541 853.2 541C817.7 541 782.3 541 746.8 541C711.3 541 675.7 541 640 541C604.3 541 568.7 541 533.2 541C497.7 541 462.3 541 426.8 541C391.3 541 355.7 541 320 541C284.3 541 248.7 541 213.2 541C177.7 541 142.3 541 106.8 541C71.3 541 35.7 541 17.8 541L0 541Z" fill="#00466e"></path><path d="M0 510L17.8 504.2C35.7 498.3 71.3 486.7 106.8 486.3C142.3 486 177.7 497 213.2 503.5C248.7 510 284.3 512 320 507.8C355.7 503.7 391.3 493.3 426.8 491.2C462.3 489 497.7 495 533.2 498.3C568.7 501.7 604.3 502.3 640 504.8C675.7 507.3 711.3 511.7 746.8 511.3C782.3 511 817.7 506 853.2 502.2C888.7 498.3 924.3 495.7 942.2 494.3L960 493L960 541L942.2 541C924.3 541 888.7 541 853.2 541C817.7 541 782.3 541 746.8 541C711.3 541 675.7 541 640 541C604.3 541 568.7 541 533.2 541C497.7 541 462.3 541 426.8 541C391.3 541 355.7 541 320 541C284.3 541 248.7 541 213.2 541C177.7 541 142.3 541 106.8 541C71.3 541 35.7 541 17.8 541L0 541Z" fill="#022249"></path></svg>
