<svg class="svg-icon" style="width: 1em; height: 1em;vertical-align: middle;fill: currentColor;overflow: hidden;" viewBox="0 0 1024 1024" version="1.1" xmlns="http://www.w3.org/2000/svg"><path d="M279.272727 884.363636l279.272727 0c0-16.058182 2.048-31.650909 5.864727-46.545455L279.272727 837.818182 279.272727 884.363636z"  /><path d="M791.272727 1024 791.272727 930.909091 884.363636 930.909091 884.363636 837.818182 791.272727 837.818182 791.272727 744.727273 698.181818 744.727273 698.181818 837.818182 605.090909 837.818182 605.090909 930.909091 698.181818 930.909091 698.181818 1024Z"  /><path d="M744.727273 698.181818 279.272727 698.181818l0 46.545455 342.295273 0C654.382545 715.776 697.530182 698.181818 744.727273 698.181818z"  /><path d="M279.272727 279.272727l465.454545 0 0 46.545455-465.454545 0 0-46.545455Z"  /><path d="M279.272727 558.545455l465.454545 0 0 46.545455-465.454545 0 0-46.545455Z"  /><path d="M884.363636 204.8 681.239273 0 162.210909 0C162.210909 0 139.636364 0 139.636364 22.760727L139.636364 1001.192727C139.636364 1024 162.210909 1024 162.210909 1024l459.357091 0c-15.080727-13.312-27.973818-29.044364-38.120727-46.545455L186.181818 977.454545 186.181818 46.545455l465.454545 0 0 139.636364c0 46.545455 46.545455 46.545455 46.545455 46.545455l139.636364 0 0 490.356364c17.501091 10.146909 33.233455 23.04 46.545455 38.120727L884.363636 204.8z"  /><path d="M279.272727 139.636364l279.272727 0 0 46.545455-279.272727 0 0-46.545455Z"  /><path d="M279.272727 418.909091l465.454545 0 0 46.545455-465.454545 0 0-46.545455Z"  /></svg>