<svg class="svg-icon" style="width: 1em; height: 1em;vertical-align: middle;fill: currentColor;overflow: hidden;" viewBox="0 0 1024 1024" version="1.1" xmlns="http://www.w3.org/2000/svg"><path d="M708 122.048L186.144 643.904l-58.176 252.128 252.128-58.176L901.952 316l-193.952-193.952z m126.048 193.952l-46.048 46.048-126.048-126.048 46.048-46.048 126.048 126.048z m-508.096 416l318.048-318.048 46.048 46.048-318.048 318.048-46.048-46.048z m-80-80l318.048-318.048 46.048 46.048-318.048 318.048-46.048-46.048z m352-352l30.048-30.048 126.048 126.048-30.048 30.048-126.048-126.048zM223.168 697.088l103.744 103.744-134.88 31.136 31.136-134.88z"  /></svg>